<?xml version="1.0" encoding="UTF-8"?>
<svg version="1.1" xmlns="http://www.w3.org/2000/svg" width="211" height="203">
<path d="M0 0 C69.63 0 139.26 0 211 0 C211 66.99 211 133.98 211 203 C141.37 203 71.74 203 0 203 C0 136.01 0 69.02 0 0 Z " fill="#FCFEFD" transform="translate(0,0)"/>
<path d="M0 0 C1.23580811 0.00942627 2.47161621 0.01885254 3.74487305 0.02856445 C12.28046045 0.17006319 19.94798244 0.80210403 28.125 3.375 C29.31222656 3.70371094 30.49945313 4.03242187 31.72265625 4.37109375 C46.26405872 8.71697308 58.91575152 16.14901893 70.125 26.375 C70.90230469 27.07109375 71.67960938 27.7671875 72.48046875 28.484375 C86.68616353 41.88320587 96.64420973 60.46643689 101.125 79.375 C101.29837891 80.02533203 101.47175781 80.67566406 101.65039062 81.34570312 C102.80751039 85.95113201 103.21392171 89.73680987 102.125 94.375 C99.05096696 98.82165562 94.47223437 101.83947294 90.11669922 104.92773438 C86.96850322 107.21536687 84.05826106 109.7589356 81.125 112.3125 C80.55088379 112.80298828 79.97676758 113.29347656 79.38525391 113.79882812 C74.51717201 117.96952772 69.84258556 122.33144627 65.17285156 126.72143555 C60.84699702 130.76487742 56.3573293 134.54089342 51.73046875 138.23828125 C48.12710437 141.19336418 44.72110691 144.34700557 41.31640625 147.52734375 C39.30840152 149.22036734 37.52115784 150.3324803 35.125 151.375 C41.4251052 128.83125007 58.60914761 107.18493636 72.54760742 88.77856445 C74.00967838 86.55072223 74.69842608 84.97706318 75.125 82.375 C66.56116911 83.21544364 60.82816103 84.98935683 54.125 90.375 C53.27421875 91.03757812 52.4234375 91.70015625 51.546875 92.3828125 C45.5038105 97.1999982 39.79571129 102.33766613 34.14453125 107.6015625 C31.88799251 109.69506536 29.58525125 111.727245 27.26171875 113.74609375 C23.13059111 117.34595749 19.11557184 121.05803377 15.125 124.8125 C14.0740918 125.79863281 14.0740918 125.79863281 13.00195312 126.8046875 C8.91483346 130.65183648 4.90059811 134.55406456 0.97070312 138.56225586 C-0.75369884 140.25586493 -2.5294065 141.8157917 -4.375 143.375 C-9.98819742 148.25491864 -15.15486264 153.58393227 -20.375 158.875 C-26.14161982 164.7199757 -31.88470446 170.50768612 -38.13671875 175.84179688 C-41.3107251 178.6413418 -44.16113447 181.76184507 -47.00390625 184.89453125 C-48.359375 186.3125 -48.359375 186.3125 -50.875 188.375 C-57.99126622 188.44395607 -65.6990822 179.70491947 -70.57714844 175.03125 C-81.89055596 163.83918502 -92.8878872 148.07229448 -96.875 132.375 C-96.545 131.385 -96.215 130.395 -95.875 129.375 C-94.71871094 129.85839844 -94.71871094 129.85839844 -93.5390625 130.3515625 C-78.68830976 134.49964056 -61.49344117 131.13542989 -46.875 127.375 C-46.13024414 127.18776367 -45.38548828 127.00052734 -44.61816406 126.80761719 C-27.57899773 122.43647084 -4.53610917 115.03679613 5.9375 99.875 C9.01988988 94.65940062 9.16719089 89.25532907 8.125 83.375 C3.96372796 77.19614152 -3.01090084 75.32770343 -10.03417969 73.80541992 C-16.09307103 72.88742186 -22.25671879 72.96877229 -28.375 72.875 C-50.71743295 72.53256705 -50.71743295 72.53256705 -54.875 68.375 C-54.77068551 65.34987987 -53.7668981 64.256733 -51.71484375 62.01171875 C-27.12340186 39.17922456 7.17611592 34.85899119 39.125 35.375 C39.125 39.375 39.125 39.375 37.04760742 41.48193359 C33.84578219 43.55585831 31.02166795 44.59589479 27.36328125 45.6640625 C26.73141403 45.85342377 26.09954681 46.04278503 25.4485321 46.23788452 C23.44788248 46.83611685 21.44325553 47.41913899 19.4375 48 C17.4216502 48.58977016 15.40695991 49.18285929 13.39433289 49.78353882 C11.57678329 50.32518795 9.75587095 50.85551477 7.93481445 51.38525391 C5.03145592 52.18053531 5.03145592 52.18053531 3.125 54.375 C5.72647017 56.97647017 12.94954839 55.65886329 16.4375 55.6875 C17.57251953 55.71650391 18.70753906 55.74550781 19.87695312 55.77539062 C31.24843099 55.8597199 41.72305199 53.45379616 50.125 45.375 C52.49604692 41.81842962 52.60901112 40.56976306 52.125 36.375 C49.16508034 29.34519081 44.8004453 26.30301868 37.8515625 23.4375 C14.19030505 15.03896493 -15.32938169 21.20119926 -37.375 31.6875 C-49.00218731 37.91050166 -62.85261361 47.21695349 -68.875 59.375 C-69.58584318 63.83519249 -69.37867723 68.01210867 -67.8125 72.25 C-62.4729031 78.10633209 -54.07371111 80.78680426 -46.34793091 81.66091919 C-43.76095566 81.77925449 -41.18728691 81.81606526 -38.59765625 81.81640625 C-37.1979081 81.83621803 -37.1979081 81.83621803 -35.7698822 81.85643005 C-32.82572287 81.89692032 -29.8818728 81.91890294 -26.9375 81.9375 C-23.96822514 81.96131192 -20.99924018 81.98937837 -18.03013611 82.02928162 C-16.19166719 82.05359256 -14.35304393 82.06848857 -12.51441956 82.07289124 C-11.68603073 82.08307785 -10.85764191 82.09326447 -10.00415039 82.10375977 C-9.27708389 82.10803482 -8.5500174 82.11230988 -7.80091858 82.11671448 C-5.875 82.375 -5.875 82.375 -2.875 84.375 C-2.875 87.38259435 -3.15078387 89.55864987 -5.1953125 91.86328125 C-25.23162178 107.95304476 -62.63298539 117.52892067 -87.875 116.375 C-86.25133534 113.12767068 -83.12112161 112.67344864 -79.875 111.375 C-83.20169041 111.84073666 -86.51280678 112.30564385 -89.8125 112.9375 C-92.32113696 113.29587671 -94.54811178 113.42042381 -97.06640625 113.40234375 C-98.32324219 113.39332031 -99.58007812 113.38429688 -100.875 113.375 C-102.06411563 81.4884071 -94.26802147 55.00303281 -72.671875 30.91796875 C-61.07760778 18.74398817 -44.97832343 8.13120936 -28.43725586 4.01855469 C-26.70750155 3.5840971 -24.98599883 3.11557587 -23.27392578 2.6159668 C-15.42665484 0.41946242 -8.12468428 -0.09598924 0 0 Z " fill="#6CD3AD" transform="translate(102.875,0.625)"/>
<path d="M0 0 C0 3.99833488 -1.35814212 4.81158018 -4.0625 7.6875 C-4.89265625 8.58339844 -5.7228125 9.47929688 -6.578125 10.40234375 C-7.77695312 11.68818359 -7.77695312 11.68818359 -9 13 C-14.93013079 19.63800676 -20.68335112 26.43569058 -26.46240234 33.20507812 C-27.91239174 34.89773009 -29.37090446 36.58258733 -30.83203125 38.265625 C-39.68896254 48.51496733 -48.12495158 59.0353543 -54.5625 71 C-54.88500732 71.5986084 -55.20751465 72.1972168 -55.53979492 72.81396484 C-58.91320739 79.35617446 -60.23862841 85.76696988 -61 93 C-74.08399668 98.71680479 -86.73223649 99.61968475 -100.8125 99.625 C-101.64580841 99.63144531 -102.47911682 99.63789063 -103.337677 99.64453125 C-116.77450279 99.70785106 -128.91642032 98.38959682 -141 92 C-138.02173371 89.0158478 -135.03403742 86.04160652 -132.0390625 83.07421875 C-130.56765116 81.6120367 -129.0962984 80.1497957 -127.625 78.6875 C-126.89539063 77.96626953 -126.16578125 77.24503906 -125.4140625 76.50195312 C-121.31273257 72.4189327 -117.38875483 68.24999497 -113.61279297 63.86450195 C-111.22186935 61.10042631 -108.73862694 58.42590176 -106.25 55.75 C-105.20424799 54.62125964 -104.15867914 53.49234958 -103.11328125 52.36328125 C-102.33331787 51.52144287 -102.33331787 51.52144287 -101.53759766 50.66259766 C-99.16291947 48.09486847 -96.79947949 45.5169073 -94.4375 42.9375 C-93.98938965 42.44813965 -93.5412793 41.9587793 -93.07958984 41.45458984 C-92.17558862 40.46731251 -91.27161722 39.48000786 -90.36767578 38.49267578 C-88.97420848 36.97185124 -87.57912249 35.45252676 -86.18359375 33.93359375 C-81.9746628 29.35086008 -77.77583421 24.76060317 -73.625 20.125 C-67.83556154 13.67119975 -61.91191113 7.3413699 -56 1 C-56 4.74149481 -56.81102932 5.19613662 -59.25 7.9375 C-65.84602252 15.96188655 -70.84864585 25.00851666 -76 34 C-76.5273877 34.92022949 -77.05477539 35.84045898 -77.59814453 36.78857422 C-91.61905675 59.4819909 -91.61905675 59.4819909 -96 85 C-95.19283815 87.49187758 -94.17700577 89.64598846 -93 92 C-89.63064676 91.73091971 -88.3136054 91.34423093 -86 88.8046875 C-85.34 87.83789062 -84.68 86.87109375 -84 85.875 C-80.41437634 80.80465566 -76.58885277 76.04917157 -72.5 71.375 C-71.99082031 70.79089355 -71.48164063 70.20678711 -70.95703125 69.60498047 C-69.31279724 67.72933192 -67.65745148 65.86397755 -66 64 C-65.32718994 63.23743896 -64.65437988 62.47487793 -63.96118164 61.68920898 C-58.32468855 55.35072594 -52.44746654 49.29635517 -46.4375 43.3125 C-45.09655273 41.96575195 -45.09655273 41.96575195 -43.72851562 40.59179688 C-39.17088467 36.04083399 -34.551671 31.64094523 -29.66430664 27.44604492 C-27.67782801 25.72007853 -25.82745018 23.89271626 -24 22 C-20.88472529 18.84246381 -17.65864869 15.89893788 -14.296875 13.0078125 C-9.44605538 8.76747018 -4.7373341 4.36624293 0 0 Z " fill="#6DD3AE" transform="translate(205,104)"/>
<path d="M0 0 C1.132818 3.39845401 0.94784139 3.77708034 -0.44140625 6.87890625 C-0.94124023 8.00619141 -0.94124023 8.00619141 -1.45117188 9.15625 C-2.0012793 10.34734375 -2.0012793 10.34734375 -2.5625 11.5625 C-2.93310547 12.37589844 -3.30371094 13.18929687 -3.68554688 14.02734375 C-11.50711291 30.94029828 -23.14316642 46.78115169 -39 57 C-39.66 56.67 -40.32 56.34 -41 56 C-33.12236307 39.66919101 -21.12254837 25.65432765 -9.54345703 11.85205078 C-6.29578332 7.95504781 -3.14737364 3.97820209 0 0 Z " fill="#6FD4AF" transform="translate(201,130)"/>
<path d="M0 0 C0 3.9308352 -1.33746371 5.00319931 -3.8125 8 C-4.52019531 8.86625 -5.22789062 9.7325 -5.95703125 10.625 C-8.63076043 13.73327408 -11.45584143 16.4544814 -14.5625 19.125 C-15.46162109 19.90230469 -15.46162109 19.90230469 -16.37890625 20.6953125 C-18 22 -18 22 -20 23 C-18.45872649 19.28731906 -16.19156766 17.01884302 -13.3125 14.25 C-8.97425032 10.00606009 -4.93803975 5.61244412 -1 1 C-0.67 0.67 -0.34 0.34 0 0 Z " fill="#77D6B4" transform="translate(149,105)"/>
<path d="M0 0 C1.2077558 3.62326739 0.54311128 4.64146369 -1 8 C-1.99 8 -2.98 8 -4 8 C-4.99 8.495 -4.99 8.495 -6 9 C-4.47291037 5.56404834 -2.40072955 2.88087546 0 0 Z " fill="#83DABA" transform="translate(201,130)"/>
<path d="M0 0 C0 4.38968456 -2.12805101 5.76905739 -5 9 C-5.66 8.34 -6.32 7.68 -7 7 C-4.69 4.69 -2.38 2.38 0 0 Z " fill="#92DEC2" transform="translate(149,105)"/>
</svg>
