<svg width="242" height="46" viewBox="0 0 242 46" fill="none" xmlns="http://www.w3.org/2000/svg">
<path d="M1.20797 9.512C1.20797 7.656 1.65597 6.04 2.55197 4.664C3.47997 3.288 4.77597 2.232 6.43997 1.496C8.10398 0.727995 10.056 0.343994 12.296 0.343994C14.248 0.343994 15.96 0.695994 17.432 1.39999C18.936 2.072 20.136 3.064 21.032 4.376C21.928 5.688 22.488 7.256 22.712 9.08H20.312C20.088 6.968 19.272 5.336 17.864 4.184C16.488 3.032 14.632 2.456 12.296 2.456C9.67197 2.456 7.54397 3.096 5.91197 4.376C4.31197 5.656 3.51197 7.368 3.51197 9.512C3.51197 11.144 3.99197 12.504 4.95197 13.592C5.94397 14.648 7.41598 15.432 9.36798 15.944L15.416 17.48C17.976 18.12 19.928 19.192 21.272 20.696C22.616 22.2 23.288 24.04 23.288 26.216C23.288 28.104 22.824 29.752 21.896 31.16C20.968 32.568 19.656 33.656 17.96 34.424C16.296 35.192 14.328 35.576 12.056 35.576C9.94398 35.576 8.07198 35.224 6.43997 34.52C4.80797 33.816 3.51197 32.824 2.55197 31.544C1.59197 30.232 1.01597 28.696 0.823975 26.936H3.27197C3.36797 28.888 4.21597 30.456 5.81597 31.64C7.44797 32.824 9.52798 33.416 12.056 33.416C14.776 33.416 16.936 32.776 18.536 31.496C20.168 30.184 20.984 28.44 20.984 26.264C20.984 24.568 20.488 23.176 19.496 22.088C18.504 20.968 17 20.152 14.984 19.64L9.07998 18.152C6.51998 17.512 4.56797 16.472 3.22397 15.032C1.87997 13.56 1.20797 11.72 1.20797 9.512Z" fill="black"/>
<path d="M23.5175 23.576C23.5175 21.144 23.9655 19.016 24.8615 17.192C25.7895 15.368 27.0695 13.944 28.7015 12.92C30.3335 11.896 32.2535 11.384 34.4615 11.384C36.9255 11.384 39.0215 12.056 40.7495 13.4C42.5095 14.744 43.6455 16.504 44.1575 18.68H41.9015C41.4215 16.984 40.4775 15.672 39.0695 14.744C37.6935 13.816 36.1575 13.352 34.4615 13.352C32.7655 13.352 31.2455 13.768 29.9015 14.6C28.5895 15.432 27.5495 16.616 26.7815 18.152C26.0455 19.656 25.6775 21.448 25.6775 23.528C25.6775 25.512 26.0295 27.256 26.7335 28.76C27.4375 30.264 28.4295 31.448 29.7095 32.312C30.9895 33.144 32.4775 33.56 34.1735 33.56C36.0295 33.56 37.6615 33.08 39.0695 32.12C40.5095 31.16 41.4855 29.896 41.9975 28.328H44.2535C43.8375 29.768 43.1495 31.032 42.1895 32.12C41.2295 33.208 40.0615 34.056 38.6855 34.664C37.3095 35.272 35.8055 35.576 34.1735 35.576C32.0615 35.576 30.2055 35.08 28.6055 34.088C27.0055 33.064 25.7575 31.656 24.8615 29.864C23.9655 28.072 23.5175 25.976 23.5175 23.576Z" fill="black"/>
<path d="M47.9416 34.952H45.7336V0.343994H47.9416V16.424C48.6776 14.92 49.7496 13.704 51.1576 12.776C52.5976 11.848 54.3416 11.384 56.3896 11.384C59.4936 11.384 61.7176 12.264 63.0616 14.024C64.4376 15.784 65.1256 18.104 65.1256 20.984V35H62.9176V21.416C62.9176 19.368 62.6296 17.768 62.0536 16.616C61.5096 15.464 60.7256 14.648 59.7016 14.168C58.7096 13.656 57.5576 13.4 56.2456 13.4C54.4216 13.4 52.8856 13.816 51.6376 14.648C50.4216 15.48 49.4936 16.584 48.8536 17.96C48.2456 19.336 47.9416 20.84 47.9416 22.472V34.952Z" fill="black"/>
<path d="M66.3642 23.24C66.3642 20.84 66.8922 18.712 67.9482 16.856C69.0042 15 70.4442 13.544 72.2682 12.488C74.1242 11.432 76.2362 10.904 78.6042 10.904C80.9722 10.904 83.0682 11.432 84.8922 12.488C86.7162 13.544 88.1562 15 89.2122 16.856C90.2682 18.712 90.7962 20.84 90.7962 23.24C90.7962 25.64 90.2682 27.768 89.2122 29.624C88.1562 31.48 86.7162 32.936 84.8922 33.992C83.0682 35.048 80.9722 35.576 78.6042 35.576C76.2362 35.576 74.1242 35.048 72.2682 33.992C70.4442 32.936 69.0042 31.48 67.9482 29.624C66.8922 27.768 66.3642 25.64 66.3642 23.24ZM70.9242 23.24C70.9242 24.872 71.2442 26.312 71.8842 27.56C72.5562 28.808 73.4682 29.784 74.6202 30.488C75.7722 31.192 77.1002 31.544 78.6042 31.544C80.1082 31.544 81.4362 31.192 82.5882 30.488C83.7402 29.784 84.6362 28.808 85.2762 27.56C85.9482 26.312 86.2842 24.872 86.2842 23.24C86.2842 21.576 85.9482 20.136 85.2762 18.92C84.6362 17.672 83.7402 16.696 82.5882 15.992C81.4362 15.288 80.1082 14.936 78.6042 14.936C77.1002 14.936 75.7722 15.288 74.6202 15.992C73.4682 16.696 72.5562 17.672 71.8842 18.92C71.2442 20.136 70.9242 21.576 70.9242 23.24Z" fill="url(#paint0_linear_28_40)"/>
<path d="M90.4148 23.24C90.4148 20.84 90.9428 18.712 91.9988 16.856C93.0548 15 94.4949 13.544 96.3188 12.488C98.1749 11.432 100.287 10.904 102.655 10.904C105.023 10.904 107.119 11.432 108.943 12.488C110.767 13.544 112.207 15 113.263 16.856C114.319 18.712 114.847 20.84 114.847 23.24C114.847 25.64 114.319 27.768 113.263 29.624C112.207 31.48 110.767 32.936 108.943 33.992C107.119 35.048 105.023 35.576 102.655 35.576C100.287 35.576 98.1749 35.048 96.3188 33.992C94.4949 32.936 93.0548 31.48 91.9988 29.624C90.9428 27.768 90.4148 25.64 90.4148 23.24ZM94.9748 23.24C94.9748 24.872 95.2949 26.312 95.9349 27.56C96.6068 28.808 97.5189 29.784 98.6709 30.488C99.8229 31.192 101.151 31.544 102.655 31.544C104.159 31.544 105.487 31.192 106.639 30.488C107.791 29.784 108.687 28.808 109.327 27.56C109.999 26.312 110.335 24.872 110.335 23.24C110.335 21.576 109.999 20.136 109.327 18.92C108.687 17.672 107.791 16.696 106.639 15.992C105.487 15.288 104.159 14.936 102.655 14.936C101.151 14.936 99.8229 15.288 98.6709 15.992C97.5189 16.696 96.6068 17.672 95.9349 18.92C95.2949 20.136 94.9748 21.576 94.9748 23.24Z" fill="url(#paint1_linear_28_40)"/>
<path d="M118.785 35H116.577V0.343994H118.785V35Z" fill="black"/>
<path d="M125.412 35H123.108V0.919995H125.412L138.468 32.216L151.476 0.919995H153.828V35H151.524V16.328C151.524 14.92 151.524 13.688 151.524 12.632C151.556 11.544 151.572 10.584 151.572 9.752C151.604 8.888 151.636 8.136 151.668 7.496C151.7 6.824 151.732 6.2 151.764 5.62399L139.62 35H137.316L125.172 5.768C125.236 6.248 125.284 7.432 125.316 9.32C125.38 11.176 125.412 13.512 125.412 16.328V35Z" fill="black"/>
<path d="M156.243 23.48C156.243 21.144 156.739 19.08 157.731 17.288C158.723 15.464 160.083 14.024 161.811 12.968C163.539 11.912 165.491 11.384 167.667 11.384C169.875 11.384 171.827 11.912 173.523 12.968C175.251 14.024 176.611 15.464 177.603 17.288C178.595 19.08 179.091 21.144 179.091 23.48C179.091 25.784 178.595 27.848 177.603 29.672C176.611 31.496 175.251 32.936 173.523 33.992C171.827 35.048 169.875 35.576 167.667 35.576C165.491 35.576 163.539 35.048 161.811 33.992C160.083 32.936 158.723 31.496 157.731 29.672C156.739 27.848 156.243 25.784 156.243 23.48ZM158.499 23.48C158.499 25.432 158.883 27.176 159.651 28.712C160.451 30.216 161.539 31.4 162.915 32.264C164.291 33.128 165.875 33.56 167.667 33.56C169.459 33.56 171.043 33.128 172.419 32.264C173.795 31.4 174.867 30.216 175.635 28.712C176.435 27.176 176.835 25.432 176.835 23.48C176.835 21.496 176.435 19.752 175.635 18.248C174.867 16.744 173.795 15.56 172.419 14.696C171.043 13.832 169.459 13.4 167.667 13.4C165.875 13.4 164.291 13.832 162.915 14.696C161.539 15.56 160.451 16.744 159.651 18.248C158.883 19.752 158.499 21.496 158.499 23.48Z" fill="black"/>
<path d="M183.011 35H180.803V11.96H182.579L183.059 16.424C183.827 14.824 184.947 13.592 186.419 12.728C187.891 11.832 189.491 11.384 191.219 11.384C194.483 11.384 196.787 12.264 198.131 14.024C199.507 15.784 200.195 18.104 200.195 20.984V35H197.987V21.416C197.987 18.376 197.363 16.28 196.115 15.128C194.899 13.976 193.251 13.4 191.171 13.4C188.547 13.4 186.531 14.296 185.123 16.088C183.715 17.848 183.011 20.184 183.011 23.096V35Z" fill="black"/>
<path d="M212.714 35.576C210.506 35.576 208.57 35.08 206.906 34.088C205.242 33.064 203.946 31.656 203.018 29.864C202.09 28.04 201.626 25.928 201.626 23.528C201.626 21.128 202.074 19.016 202.97 17.192C203.898 15.368 205.162 13.944 206.762 12.92C208.394 11.896 210.282 11.384 212.426 11.384C214.442 11.384 216.202 11.832 217.706 12.728C219.242 13.624 220.426 14.872 221.258 16.472C222.122 18.04 222.554 19.88 222.554 21.992V23.528H202.874L202.97 21.704H220.298C220.298 19.208 219.578 17.208 218.138 15.704C216.698 14.168 214.794 13.4 212.426 13.4C210.73 13.4 209.226 13.8 207.914 14.6C206.634 15.4 205.626 16.536 204.89 18.008C204.186 19.448 203.834 21.128 203.834 23.048C203.834 26.344 204.618 28.92 206.186 30.776C207.754 32.632 209.93 33.56 212.714 33.56C214.762 33.56 216.426 33.128 217.706 32.264C218.986 31.368 219.85 30.072 220.298 28.376H222.554C221.882 30.744 220.714 32.536 219.05 33.752C217.418 34.968 215.306 35.576 212.714 35.576Z" fill="black"/>
<path d="M222.931 11.96L232.147 36.488L229.987 36.632L220.627 11.96H222.931ZM221.299 44.744V42.968H223.459C224.099 42.968 224.755 42.92 225.427 42.824C226.099 42.728 226.739 42.456 227.347 42.008C227.955 41.56 228.451 40.792 228.835 39.704L238.819 11.96H241.075L230.851 40.328C230.243 41.992 229.411 43.192 228.355 43.928C227.299 44.664 225.987 45.032 224.419 45.032C223.811 45.032 223.251 45 222.739 44.936C222.259 44.904 221.779 44.84 221.299 44.744Z" fill="black"/>
<defs>
<linearGradient id="paint0_linear_28_40" x1="0.823975" y1="22.688" x2="241.075" y2="22.688" gradientUnits="userSpaceOnUse">
<stop stop-color="#F9E49E"/>
<stop offset="1" stop-color="#4BB3BA"/>
</linearGradient>
<linearGradient id="paint1_linear_28_40" x1="0.823975" y1="22.688" x2="241.075" y2="22.688" gradientUnits="userSpaceOnUse">
<stop stop-color="#F9E49E"/>
<stop offset="1" stop-color="#4BB3BA"/>
</linearGradient>
</defs>
</svg>
