<svg width="241" height="45" viewBox="0 0 241 45" fill="none" xmlns="http://www.w3.org/2000/svg">
<path d="M0.384 9.168C0.384 7.312 0.832 5.696 1.728 4.32C2.656 2.944 3.952 1.888 5.616 1.152C7.28 0.384001 9.232 0 11.472 0C13.424 0 15.136 0.352 16.608 1.056C18.112 1.728 19.312 2.72 20.208 4.032C21.104 5.344 21.664 6.912 21.888 8.736H19.488C19.264 6.624 18.448 4.992 17.04 3.84C15.664 2.688 13.808 2.112 11.472 2.112C8.848 2.112 6.72 2.752 5.088 4.032C3.488 5.312 2.688 7.024 2.688 9.168C2.688 10.8 3.168 12.16 4.128 13.248C5.12 14.304 6.592 15.088 8.544 15.6L14.592 17.136C17.152 17.776 19.104 18.848 20.448 20.352C21.792 21.856 22.464 23.696 22.464 25.872C22.464 27.76 22 29.408 21.072 30.816C20.144 32.224 18.832 33.312 17.136 34.08C15.472 34.848 13.504 35.232 11.232 35.232C9.12 35.232 7.248 34.88 5.616 34.176C3.984 33.472 2.688 32.48 1.728 31.2C0.768 29.888 0.192 28.352 0 26.592H2.448C2.544 28.544 3.392 30.112 4.992 31.296C6.624 32.48 8.704 33.072 11.232 33.072C13.952 33.072 16.112 32.432 17.712 31.152C19.344 29.84 20.16 28.096 20.16 25.92C20.16 24.224 19.664 22.832 18.672 21.744C17.68 20.624 16.176 19.808 14.16 19.296L8.256 17.808C5.696 17.168 3.744 16.128 2.4 14.688C1.056 13.216 0.384 11.376 0.384 9.168Z" fill="white"/>
<path d="M22.6935 23.232C22.6935 20.8 23.1415 18.672 24.0375 16.848C24.9655 15.024 26.2455 13.6 27.8775 12.576C29.5095 11.552 31.4295 11.04 33.6375 11.04C36.1015 11.04 38.1975 11.712 39.9255 13.056C41.6855 14.4 42.8215 16.16 43.3335 18.336H41.0775C40.5975 16.64 39.6535 15.328 38.2455 14.4C36.8695 13.472 35.3335 13.008 33.6375 13.008C31.9415 13.008 30.4215 13.424 29.0775 14.256C27.7655 15.088 26.7255 16.272 25.9575 17.808C25.2215 19.312 24.8535 21.104 24.8535 23.184C24.8535 25.168 25.2055 26.912 25.9095 28.416C26.6135 29.92 27.6055 31.104 28.8855 31.968C30.1655 32.8 31.6535 33.216 33.3495 33.216C35.2055 33.216 36.8375 32.736 38.2455 31.776C39.6855 30.816 40.6615 29.552 41.1735 27.984H43.4295C43.0135 29.424 42.3255 30.688 41.3655 31.776C40.4055 32.864 39.2375 33.712 37.8615 34.32C36.4855 34.928 34.9815 35.232 33.3495 35.232C31.2375 35.232 29.3815 34.736 27.7815 33.744C26.1815 32.72 24.9335 31.312 24.0375 29.52C23.1415 27.728 22.6935 25.632 22.6935 23.232Z" fill="white"/>
<path d="M47.1176 34.608H44.9096V0H47.1176V16.08C47.8536 14.576 48.9256 13.36 50.3336 12.432C51.7736 11.504 53.5176 11.04 55.5656 11.04C58.6696 11.04 60.8936 11.92 62.2376 13.68C63.6136 15.44 64.3016 17.76 64.3016 20.64V34.656H62.0936V21.072C62.0936 19.024 61.8056 17.424 61.2296 16.272C60.6856 15.12 59.9016 14.304 58.8776 13.824C57.8856 13.312 56.7336 13.056 55.4216 13.056C53.5976 13.056 52.0616 13.472 50.8136 14.304C49.5976 15.136 48.6696 16.24 48.0296 17.616C47.4216 18.992 47.1176 20.496 47.1176 22.128V34.608Z" fill="white"/>
<path d="M65.5403 22.896C65.5403 20.496 66.0683 18.368 67.1243 16.512C68.1803 14.656 69.6203 13.2 71.4443 12.144C73.3003 11.088 75.4122 10.56 77.7803 10.56C80.1483 10.56 82.2443 11.088 84.0683 12.144C85.8923 13.2 87.3323 14.656 88.3883 16.512C89.4443 18.368 89.9723 20.496 89.9723 22.896C89.9723 25.296 89.4443 27.424 88.3883 29.28C87.3323 31.136 85.8923 32.592 84.0683 33.648C82.2443 34.704 80.1483 35.232 77.7803 35.232C75.4122 35.232 73.3003 34.704 71.4443 33.648C69.6203 32.592 68.1803 31.136 67.1243 29.28C66.0683 27.424 65.5403 25.296 65.5403 22.896ZM70.1003 22.896C70.1003 24.528 70.4203 25.968 71.0603 27.216C71.7323 28.464 72.6443 29.44 73.7963 30.144C74.9483 30.848 76.2763 31.2 77.7803 31.2C79.2842 31.2 80.6123 30.848 81.7643 30.144C82.9163 29.44 83.8123 28.464 84.4523 27.216C85.1243 25.968 85.4603 24.528 85.4603 22.896C85.4603 21.232 85.1243 19.792 84.4523 18.576C83.8123 17.328 82.9163 16.352 81.7643 15.648C80.6123 14.944 79.2842 14.592 77.7803 14.592C76.2763 14.592 74.9483 14.944 73.7963 15.648C72.6443 16.352 71.7323 17.328 71.0603 18.576C70.4203 19.792 70.1003 21.232 70.1003 22.896Z" fill="url(#paint0_linear_28_41)"/>
<path d="M89.5909 22.896C89.5909 20.496 90.1189 18.368 91.1749 16.512C92.2309 14.656 93.6709 13.2 95.4949 12.144C97.3509 11.088 99.4629 10.56 101.831 10.56C104.199 10.56 106.295 11.088 108.119 12.144C109.943 13.2 111.383 14.656 112.439 16.512C113.495 18.368 114.023 20.496 114.023 22.896C114.023 25.296 113.495 27.424 112.439 29.28C111.383 31.136 109.943 32.592 108.119 33.648C106.295 34.704 104.199 35.232 101.831 35.232C99.4629 35.232 97.3509 34.704 95.4949 33.648C93.6709 32.592 92.2309 31.136 91.1749 29.28C90.1189 27.424 89.5909 25.296 89.5909 22.896ZM94.1509 22.896C94.1509 24.528 94.4709 25.968 95.1109 27.216C95.7829 28.464 96.6949 29.44 97.8469 30.144C98.9989 30.848 100.327 31.2 101.831 31.2C103.335 31.2 104.663 30.848 105.815 30.144C106.967 29.44 107.863 28.464 108.503 27.216C109.175 25.968 109.511 24.528 109.511 22.896C109.511 21.232 109.175 19.792 108.503 18.576C107.863 17.328 106.967 16.352 105.815 15.648C104.663 14.944 103.335 14.592 101.831 14.592C100.327 14.592 98.9989 14.944 97.8469 15.648C96.6949 16.352 95.7829 17.328 95.1109 18.576C94.4709 19.792 94.1509 21.232 94.1509 22.896Z" fill="url(#paint1_linear_28_41)"/>
<path d="M117.962 34.656H115.754V0H117.962V34.656Z" fill="white"/>
<path d="M124.588 34.656H122.284V0.576001H124.588L137.644 31.872L150.652 0.576001H153.004V34.656H150.7V15.984C150.7 14.576 150.7 13.344 150.7 12.288C150.732 11.2 150.748 10.24 150.748 9.408C150.78 8.544 150.812 7.792 150.844 7.152C150.876 6.48 150.908 5.856 150.94 5.28L138.796 34.656H136.492L124.348 5.424C124.412 5.904 124.46 7.088 124.492 8.976C124.556 10.832 124.588 13.168 124.588 15.984V34.656Z" fill="white"/>
<path d="M155.419 23.136C155.419 20.8 155.915 18.736 156.907 16.944C157.899 15.12 159.259 13.68 160.987 12.624C162.715 11.568 164.667 11.04 166.843 11.04C169.051 11.04 171.003 11.568 172.699 12.624C174.427 13.68 175.787 15.12 176.779 16.944C177.771 18.736 178.267 20.8 178.267 23.136C178.267 25.44 177.771 27.504 176.779 29.328C175.787 31.152 174.427 32.592 172.699 33.648C171.003 34.704 169.051 35.232 166.843 35.232C164.667 35.232 162.715 34.704 160.987 33.648C159.259 32.592 157.899 31.152 156.907 29.328C155.915 27.504 155.419 25.44 155.419 23.136ZM157.675 23.136C157.675 25.088 158.059 26.832 158.827 28.368C159.627 29.872 160.715 31.056 162.091 31.92C163.467 32.784 165.051 33.216 166.843 33.216C168.635 33.216 170.219 32.784 171.595 31.92C172.971 31.056 174.043 29.872 174.811 28.368C175.611 26.832 176.011 25.088 176.011 23.136C176.011 21.152 175.611 19.408 174.811 17.904C174.043 16.4 172.971 15.216 171.595 14.352C170.219 13.488 168.635 13.056 166.843 13.056C165.051 13.056 163.467 13.488 162.091 14.352C160.715 15.216 159.627 16.4 158.827 17.904C158.059 19.408 157.675 21.152 157.675 23.136Z" fill="white"/>
<path d="M182.187 34.656H179.979V11.616H181.755L182.235 16.08C183.003 14.48 184.123 13.248 185.595 12.384C187.067 11.488 188.667 11.04 190.395 11.04C193.659 11.04 195.963 11.92 197.307 13.68C198.683 15.44 199.371 17.76 199.371 20.64V34.656H197.163V21.072C197.163 18.032 196.539 15.936 195.291 14.784C194.075 13.632 192.427 13.056 190.347 13.056C187.723 13.056 185.707 13.952 184.299 15.744C182.891 17.504 182.187 19.84 182.187 22.752V34.656Z" fill="white"/>
<path d="M211.89 35.232C209.682 35.232 207.746 34.736 206.082 33.744C204.418 32.72 203.122 31.312 202.194 29.52C201.266 27.696 200.802 25.584 200.802 23.184C200.802 20.784 201.25 18.672 202.146 16.848C203.074 15.024 204.338 13.6 205.938 12.576C207.57 11.552 209.458 11.04 211.602 11.04C213.618 11.04 215.378 11.488 216.882 12.384C218.418 13.28 219.602 14.528 220.434 16.128C221.298 17.696 221.73 19.536 221.73 21.648V23.184H202.05L202.146 21.36H219.474C219.474 18.864 218.754 16.864 217.314 15.36C215.874 13.824 213.97 13.056 211.602 13.056C209.906 13.056 208.402 13.456 207.09 14.256C205.81 15.056 204.802 16.192 204.066 17.664C203.362 19.104 203.01 20.784 203.01 22.704C203.01 26 203.794 28.576 205.362 30.432C206.93 32.288 209.106 33.216 211.89 33.216C213.938 33.216 215.602 32.784 216.882 31.92C218.162 31.024 219.026 29.728 219.474 28.032H221.73C221.058 30.4 219.89 32.192 218.226 33.408C216.594 34.624 214.482 35.232 211.89 35.232Z" fill="white"/>
<path d="M222.107 11.616L231.323 36.144L229.163 36.288L219.803 11.616H222.107ZM220.475 44.4V42.624H222.635C223.275 42.624 223.931 42.576 224.603 42.48C225.275 42.384 225.915 42.112 226.523 41.664C227.131 41.216 227.627 40.448 228.011 39.36L237.995 11.616H240.251L230.027 39.984C229.419 41.648 228.587 42.848 227.531 43.584C226.475 44.32 225.163 44.688 223.595 44.688C222.987 44.688 222.427 44.656 221.915 44.592C221.435 44.56 220.955 44.496 220.475 44.4Z" fill="white"/>
<defs>
<linearGradient id="paint0_linear_28_41" x1="0" y1="22.344" x2="240.251" y2="22.344" gradientUnits="userSpaceOnUse">
<stop stop-color="#F9E49E"/>
<stop offset="1" stop-color="#4BB3BA"/>
</linearGradient>
<linearGradient id="paint1_linear_28_41" x1="0" y1="22.344" x2="240.251" y2="22.344" gradientUnits="userSpaceOnUse">
<stop stop-color="#F9E49E"/>
<stop offset="1" stop-color="#4BB3BA"/>
</linearGradient>
</defs>
</svg>
